<?xml version="1.0" standalone="no"?>
<!DOCTYPE svg PUBLIC "-//W3C//DTD SVG 20010904//EN"
 "http://www.w3.org/TR/2001/REC-SVG-20010904/DTD/svg10.dtd">
<svg version="1.0" xmlns="http://www.w3.org/2000/svg"
 width="104.000000pt" height="150.000000pt" viewBox="0 0 104.000000 150.000000"
 preserveAspectRatio="xMidYMid meet">

<g transform="translate(0.000000,150.000000) scale(0.100000,-0.100000)"
fill="#000000" stroke="none">
<path d="M328 1461 c-143 -47 -250 -157 -292 -300 -14 -47 -16 -131 -16 -598
l0 -543 120 0 120 0 0 183 0 183 68 -17 c87 -23 256 -25 337 -4 95 25 145 54
216 124 119 119 143 205 137 477 -4 156 -7 186 -27 237 -43 109 -140 205 -249
249 -81 32 -328 37 -414 9z m353 -249 c43 -23 59 -38 82 -82 29 -55 29 -56 25
-205 -3 -130 -7 -157 -27 -203 -46 -103 -115 -136 -278 -130 -103 3 -112 5
-147 32 -66 50 -76 86 -76 282 0 169 1 173 28 225 22 43 38 59 81 81 48 25 63
28 156 28 93 0 108 -3 156 -28z"/>
</g>
</svg>
