<?xml version="1.0" standalone="no"?>
<!DOCTYPE svg PUBLIC "-//W3C//DTD SVG 20010904//EN"
 "http://www.w3.org/TR/2001/REC-SVG-20010904/DTD/svg10.dtd">
<svg version="1.0" xmlns="http://www.w3.org/2000/svg"
 width="782.000000pt" height="195.000000pt" viewBox="0 0 782.000000 195.000000"
 preserveAspectRatio="xMidYMid meet">

<g transform="translate(0.000000,195.000000) scale(0.100000,-0.100000)"
fill="#000000" stroke="none">
<path d="M745 1671 c-159 -134 -296 -250 -302 -259 -19 -23 -16 -51 11 -118
24 -59 39 -72 65 -55 12 8 13 17 1 64 -7 31 -10 62 -7 70 3 9 105 95 226 191
121 97 231 191 245 209 36 48 58 96 54 119 -2 18 -52 -20 -293 -221z"/>
<path d="M1259 1578 l-347 -160 -4 -127 c-3 -123 -5 -130 -40 -201 -28 -55
-34 -77 -26 -87 17 -21 35 -15 61 20 54 71 61 96 67 230 l5 128 284 125 c157
69 297 134 313 145 24 18 58 66 58 84 0 13 -45 -6 -371 -157z"/>
<path d="M800 1505 c-96 -83 -165 -150 -165 -160 0 -10 7 -22 16 -28 14 -9 42
10 147 97 133 109 178 167 170 215 -2 15 -36 -9 -168 -124z"/>
<path d="M1273 1422 c-178 -76 -223 -99 -223 -114 0 -33 29 -31 153 12 168 60
208 77 240 108 27 25 62 81 55 86 -2 1 -103 -40 -225 -92z"/>
<path d="M1220 1226 c-125 -58 -156 -76 -158 -94 -2 -13 3 -25 12 -28 23 -9
223 74 262 108 29 26 63 89 46 87 -4 0 -77 -33 -162 -73z"/>
<path d="M422 1120 c-200 -81 -365 -150 -366 -152 -1 -1 62 -158 140 -348 90
-219 147 -344 156 -344 11 2 1012 419 1030 430 3 2 -27 79 -67 172 -76 175
-88 189 -129 159 -19 -14 -18 -19 37 -145 31 -72 57 -135 57 -140 0 -9 -888
-378 -893 -371 -3 3 -186 428 -223 515 l-13 31 217 88 c288 117 376 158 407
189 23 23 35 67 18 65 -5 0 -171 -67 -371 -149z"/>
<path d="M3095 1251 c-75 -19 -115 -69 -115 -146 0 -39 5 -52 30 -75 80 -74
232 -33 260 70 27 99 -65 178 -175 151z"/>
<path d="M4200 1167 c0 -5 -169 -850 -175 -874 -5 -23 -5 -23 129 -23 149 0
138 -6 152 75 4 26 19 53 42 78 20 20 39 37 42 37 3 0 31 -43 61 -95 l54 -94
158 -1 c86 0 157 2 157 4 0 3 -46 80 -101 173 -56 92 -103 173 -105 178 -3 6
68 76 157 155 l162 145 -163 3 -162 3 -105 -92 c-57 -50 -106 -89 -109 -86 -4
4 50 297 73 395 5 22 5 22 -131 22 -75 0 -136 -1 -136 -3z"/>
<path d="M1635 1108 c-2 -7 -11 -49 -20 -93 -9 -44 -19 -88 -21 -97 -5 -16 5
-18 116 -18 102 0 122 -2 127 -16 9 -24 -10 -49 -41 -52 -14 -2 -26 -10 -26
-18 0 -11 15 -14 64 -14 77 0 96 -6 96 -30 0 -25 -19 -30 -126 -30 -77 0 -94
-3 -94 -15 0 -12 20 -15 119 -15 95 0 123 -3 135 -16 9 -8 16 -17 16 -19 0 -2
-7 -11 -16 -19 -12 -13 -40 -16 -141 -16 -95 0 -124 -3 -121 -12 3 -9 38 -15
109 -18 96 -5 104 -7 104 -25 0 -19 -8 -20 -179 -25 -131 -4 -180 -8 -184 -17
-3 -10 30 -13 140 -13 152 0 188 -9 175 -44 -5 -13 -21 -16 -87 -16 -72 0 -81
-2 -78 -17 3 -15 16 -18 83 -21 86 -3 106 -12 85 -37 -9 -10 -31 -15 -75 -15
l-62 0 -7 -38 c-12 -77 -22 -72 134 -72 77 0 140 1 140 3 1 1 29 141 63 312
l63 310 127 3 c70 1 127 4 127 6 0 2 9 48 20 101 11 53 20 101 20 106 0 5
-169 9 -390 9 -304 0 -392 -3 -395 -12z"/>
<path d="M5047 678 c-43 -216 -78 -397 -77 -401 0 -5 17 -7 37 -5 l37 3 26
125 25 125 185 5 c185 5 186 5 252 38 116 57 168 144 168 276 0 75 -25 134
-72 169 -65 50 -104 57 -312 57 l-191 0 -78 -392z m491 304 c66 -35 84 -71 80
-164 -3 -66 -7 -82 -33 -119 -36 -52 -98 -86 -180 -99 -73 -12 -295 -13 -295
-2 0 5 18 98 40 207 22 109 40 201 40 203 0 2 69 2 153 0 134 -3 157 -7 195
-26z"/>
<path d="M544 1016 c-3 -8 -4 -20 -3 -27 2 -8 -16 -33 -39 -55 -34 -34 -42
-48 -42 -78 0 -57 35 -86 104 -86 52 0 55 -1 65 -31 18 -53 15 -59 -31 -59
-52 0 -71 -11 -66 -36 3 -16 13 -19 70 -18 56 0 67 -2 71 -18 3 -10 14 -18 27
-18 19 0 22 4 17 28 -5 23 0 31 23 47 42 28 63 70 56 110 -9 46 -39 65 -102
65 l-52 0 -15 45 -16 45 29 0 c44 0 60 10 60 36 0 22 -4 24 -55 24 -44 0 -56
4 -65 20 -12 23 -28 26 -36 6z m46 -175 c0 -8 -6 -11 -16 -7 -9 3 -19 6 -24 6
-16 0 -18 29 -2 51 l16 23 13 -30 c6 -16 12 -35 13 -43z m114 -67 c18 -7 22
-49 5 -60 -14 -8 -26 5 -34 39 -7 28 -1 32 29 21z"/>
<path d="M2756 920 c-26 -10 -56 -26 -65 -34 -26 -23 -31 -20 -24 14 l6 31
-129 -3 -128 -3 -63 -310 c-34 -171 -62 -318 -63 -327 0 -16 13 -18 133 -18
l134 0 36 177 c22 109 43 186 55 202 28 40 79 61 145 61 31 0 57 2 57 4 0 2 9
48 20 101 11 53 20 103 20 111 0 20 -75 17 -134 -6z"/>
<path d="M3644 916 c-28 -13 -55 -29 -58 -35 -14 -22 -25 -10 -19 19 l6 30
-127 0 c-122 0 -126 -1 -131 -22 -10 -41 -125 -622 -125 -630 0 -4 60 -8 134
-8 l133 0 32 158 c49 240 68 278 149 289 32 4 44 1 61 -16 29 -29 27 -67 -13
-264 l-33 -168 135 3 136 3 38 185 c55 272 50 358 -24 427 -62 59 -201 72
-294 29z"/>
<path d="M2945 908 c-10 -41 -125 -622 -125 -630 0 -4 60 -8 134 -8 l133 0 62
313 c34 171 64 320 67 330 5 16 -6 17 -130 17 -132 0 -136 -1 -141 -22z"/>
<path d="M6045 867 c-154 -40 -244 -156 -253 -325 -6 -104 12 -155 73 -211
101 -93 269 -93 386 0 42 33 43 33 30 -23 l-9 -38 37 0 36 0 58 293 c32 160
58 295 57 300 0 4 -16 7 -35 7 -34 0 -34 -1 -47 -60 l-12 -61 -38 45 c-21 24
-56 51 -79 60 -56 23 -144 28 -204 13z m191 -76 c53 -24 80 -60 95 -126 21
-96 -24 -223 -104 -285 -87 -69 -256 -65 -320 8 -84 94 -45 295 73 377 21 14
51 30 66 35 52 15 146 11 190 -9z"/>
<path d="M6953 870 c-52 -11 -93 -32 -139 -72 l-37 -32 7 34 c4 19 10 43 13
53 4 16 -1 18 -33 15 l-39 -3 -51 -261 c-28 -144 -54 -278 -58 -298 l-7 -37
37 3 38 3 37 182 c38 186 59 242 111 290 33 31 89 53 142 55 35 1 46 5 46 17
0 9 3 26 6 39 7 25 0 26 -73 12z"/>
<path d="M7335 867 c-68 -18 -104 -38 -153 -87 -58 -59 -92 -136 -99 -226 -7
-94 9 -152 59 -208 50 -57 110 -81 203 -81 84 1 131 16 191 61 l45 35 -6 -46
-7 -45 34 0 35 0 60 300 60 300 -38 0 -38 0 -12 -60 -12 -60 -38 44 c-21 24
-57 51 -80 60 -56 23 -144 28 -204 13z m191 -76 c75 -34 112 -110 100 -209
-12 -99 -58 -175 -135 -220 -40 -24 -57 -27 -132 -27 -76 0 -90 3 -126 27 -54
36 -78 86 -77 168 0 64 29 147 66 190 22 26 81 67 113 78 49 17 145 14 191 -7z"/>
</g>
</svg>
